<svg xmlns="http://www.w3.org/2000/svg" width="1024" height="1024" viewBox="0 0 1024 1024">
  <g fill="#CE422B" fill-rule="evenodd">
    <path d="M686 156
             C816 196 896 316 896 458
             C896 716 698 884 448 884
             C292 884 156 808 88 680
             C50 610 42 530 56 452
             C86 290 198 176 348 132
             C456 100 580 108 686 156
             Z
             M670 242
             C586 204 488 194 400 220
             C278 256 190 346 166 470
             C154 532 160 592 190 646
             C242 746 350 812 472 812
             C674 812 824 658 824 458
             C824 352 766 270 670 242
             Z"/>

    <path d="M662 162
             L838 104
             C892 86 938 126 932 180
             C922 278 870 364 776 422
             L650 502
             C630 514 608 492 620 470
             L700 324
             C712 302 688 280 666 292
             L520 372
             C498 384 476 362 488 342
             L568 214
             C588 184 624 176 662 162
             Z"/>

    <path d="M644 866
             L826 922
             C882 940 928 898 920 842
             C908 748 858 668 780 618
             L646 532
             C624 518 598 540 612 564
             L694 704
             C706 726 682 750 660 738
             L518 656
             C496 644 470 666 484 688
             L552 812
             C570 846 604 854 644 866
             Z"/>

    <path d="M126 512
             C126 472 158 440 198 440
             L464 440
             C486 440 504 458 504 480
             L504 544
             C504 566 486 584 464 584
             L198 584
             C158 584 126 552 126 512
             Z"/>

    <path d="M390 378
             L618 378
             C636 378 650 392 650 410
             C650 428 636 442 618 442
             L390 442
             C372 442 358 428 358 410
             C358 392 372 378 390 378
             Z"/>

    <path d="M390 582
             L618 582
             C636 582 650 596 650 614
             C650 632 636 646 618 646
             L390 646
             C372 646 358 632 358 614
             C358 596 372 582 390 582
             Z"/>

    <path d="M610 460
             L704 460
             L680 512
             L704 564
             L610 564
             C590 564 574 548 574 528
             L574 496
             C574 476 590 460 610 460
             Z"/>

    <path d="M520 474
             L586 474
             L568 512
             L586 550
             L520 550
             C506 550 494 538 494 524
             L494 500
             C494 486 506 474 520 474
             Z"/>

    <path d="M428 486
             L472 486
             L460 512
             L472 538
             L428 538
             C418 538 410 530 410 520
             L410 504
             C410 494 418 486 428 486
             Z"/>
  </g>
</svg>
