<svg xmlns="http://www.w3.org/2000/svg" width="1024" height="1024" viewBox="0 0 1024 1024">
  <defs>
    <filter id="shadow" x="-20%" y="-20%" width="140%" height="140%">
      <feDropShadow dx="0" dy="24" stdDeviation="24" flood-color="#15171b" flood-opacity="0.18"/>
    </filter>
  </defs>

  <g filter="url(#shadow)">
    <path d="M700 222
             C820 238 878 336 866 440
             C854 542 776 632 662 686
             C584 724 494 738 408 722
             C302 702 228 640 196 546
             C160 442 182 330 252 256
             C320 184 424 150 534 160
             C582 164 624 178 658 200"
          fill="none"
          stroke="#2B2D31"
          stroke-width="122"
          stroke-linecap="round"
          stroke-linejoin="round"/>

    <path d="M692 214
             C812 230 870 328 858 432
             C846 534 770 620 658 672
             C584 708 500 720 420 706
             C322 688 254 632 226 548
             C194 452 214 346 278 280
             C338 216 432 188 526 196
             C570 200 610 212 642 232"
          fill="none"
          stroke="#CE422B"
          stroke-width="92"
          stroke-linecap="round"
          stroke-linejoin="round"/>

    <path d="M686 226
             L820 172
             C856 158 894 184 892 222
             C888 280 854 336 794 374
             L700 438"
          fill="#2B2D31"
          stroke="#2B2D31"
          stroke-width="34"
          stroke-linecap="round"
          stroke-linejoin="round"/>

    <path d="M688 228
             L806 186
             C834 176 860 196 856 224
             C850 270 824 310 778 340
             L700 394"
          fill="#CE422B"
          stroke="#CE422B"
          stroke-width="22"
          stroke-linecap="round"
          stroke-linejoin="round"/>

    <path d="M636 224
             L744 100
             C770 70 818 80 830 118
             C846 168 834 224 786 264
             L704 330"
          fill="#2B2D31"
          stroke="#2B2D31"
          stroke-width="30"
          stroke-linecap="round"
          stroke-linejoin="round"/>

    <path d="M638 226
             L734 118
             C754 96 788 102 796 128
             C806 166 796 210 758 242
             L694 296"
          fill="#CE422B"
          stroke="#CE422B"
          stroke-width="18"
          stroke-linecap="round"
          stroke-linejoin="round"/>

    <circle cx="598" cy="274" r="22" fill="#2B2D31"/>
    <circle cx="604" cy="266" r="7" fill="#fff4dd"/>

    <path d="M736 474
             l34 -12
             m-10 64 l38 0
             m-24 62 l34 14
             m-56 50 l24 22"
          fill="none"
          stroke="#2B2D31"
          stroke-width="24"
          stroke-linecap="round"
          stroke-linejoin="round"/>

    <path d="M718 478
             l24 -8
             m-8 52 l28 0
             m-18 50 l24 10
             m-40 40 l18 16"
          fill="none"
          stroke="#CE422B"
          stroke-width="14"
          stroke-linecap="round"
          stroke-linejoin="round"/>

    <path d="M300 392
             l-52 -12
             m24 72 l-58 10
             m40 72 l-54 26
             m52 54 l-34 34"
          fill="none"
          stroke="#2B2D31"
          stroke-width="24"
          stroke-linecap="round"
          stroke-linejoin="round"
          opacity="0.95"/>

    <path d="M314 402
             l-36 -8
             m18 54 l-42 8
             m30 56 l-38 18
             m36 42 l-24 24"
          fill="none"
          stroke="#CE422B"
          stroke-width="14"
          stroke-linecap="round"
          stroke-linejoin="round"/>

    <path d="M412 670
             C462 694 534 694 578 660"
          fill="none"
          stroke="#2B2D31"
          stroke-width="24"
          stroke-linecap="round"/>

    <path d="M422 660
             C466 680 524 680 566 652"
          fill="none"
          stroke="#fff4dd"
          stroke-width="10"
          stroke-linecap="round"
          opacity="0.9"/>

    <path d="M248 286
             l26 -18 l18 26 l-28 18 z
             m40 -40 l22 -22 l24 24 l-24 22 z
             m50 -36 l18 -28 l28 18 l-18 28 z"
          fill="#2B2D31"
          opacity="0.12"/>

    <path d="M244 282
             l22 -14 l14 22 l-22 14 z
             m38 -38 l18 -18 l20 20 l-18 18 z
             m46 -34 l14 -22 l22 14 l-14 22 z"
          fill="#CE422B"
          opacity="0.82"/>
  </g>
</svg>
