<svg xmlns="http://www.w3.org/2000/svg" width="1024" height="1024" viewBox="0 0 1024 1024">
  <path fill="#CE422B" fill-rule="evenodd"
        d="M654 112
           C774 140 866 220 914 332
           C952 420 956 522 920 620
           C874 744 776 840 652 890
           C556 928 448 930 352 900
           C224 860 130 762 92 628
           C64 532 70 422 110 330
           C166 206 278 120 410 98
           C492 84 576 88 654 112
           Z

           M626 186
           C550 170 478 172 414 192
           C318 222 236 294 198 390
           C170 460 170 540 198 608
           C234 700 306 770 400 802
           C472 828 552 824 620 796
           C730 752 812 664 842 554
           C866 478 858 400 822 332
           C780 252 714 212 626 186
           Z

           M660 128
           C760 132 850 188 904 270
           C930 308 930 354 898 388
           C870 420 834 448 786 474
           L678 534
           C650 550 620 518 636 490
           L708 362
           C720 338 692 314 668 326
           L550 392
           C524 406 494 376 510 350
           L572 246
           C592 212 620 178 660 128
           Z

           M652 880
           C738 894 818 930 874 906
           C914 890 920 840 902 800
           C870 726 826 668 764 624
           L668 556
           C640 536 606 566 626 594
           L700 706
           C714 728 690 752 668 740
           L554 674
           C526 658 494 688 510 716
           L576 828
           C592 854 618 874 652 880
           Z

           M306 332
           C360 294 428 274 518 274
           C548 274 576 278 602 286
           C622 292 624 318 604 324
           C580 332 554 330 526 330
           C446 330 384 342 330 364
           C308 374 286 346 306 332
           Z

           M238 508
           C238 472 268 444 304 444
           L596 444
           C618 444 636 462 636 484
           C636 506 618 524 596 524
           L304 524
           C268 524 238 544 238 508
           Z

           M332 624
           C392 660 462 676 536 670
           C572 666 604 656 632 642
           C650 634 666 658 654 674
           C624 716 548 742 466 738
           C404 734 344 716 300 686
           C280 672 312 612 332 624
           Z

           M414 392
           C454 362 506 350 554 360
           C612 372 660 418 666 478
           C670 522 652 562 622 592
           C606 608 578 592 590 572
           C610 540 616 508 610 476
           C598 424 548 394 494 402
           C456 408 420 426 398 454
           C382 474 350 454 362 430
           C372 410 390 402 414 392
           Z

           M478 458
           C520 448 562 472 576 514
           C588 554 564 596 522 608
           C480 620 438 594 426 552
           C414 510 436 468 478 458
           Z

           M498 490
           C520 484 542 496 548 518
           C554 540 540 562 518 568
           C496 574 474 562 468 540
           C462 518 476 496 498 490
           Z

           M720 374
           C732 356 758 348 778 356
           C790 362 796 378 786 392
           L772 412
           C762 426 742 428 730 420
           C710 406 706 390 720 374
           Z"/>
</svg>
