<svg xmlns="http://www.w3.org/2000/svg" width="1024" height="1024" viewBox="0 0 1024 1024">
  <g transform="translate(128 128) scale(19.2)">
    <path fill="#CE422B" fill-rule="evenodd" clip-rule="evenodd"
          d="M23.2462 12.9964C16.7994 21.3965 16.8367 32.1287 23.3295 36.9675C25.0358 38.2391 27.0182 38.9772 29.1307 39.2218C23.1381 44.0317 16.2351 45.5244 11.5741 42.3916C5.18189 38.0951 5.42699 26.7259 12.1215 16.9977C17.7117 8.87433 26.0312 4.46391 32.3458 5.73136C29.0104 7.18919 25.8089 9.6572 23.2462 12.9964ZM31.717 23.7244C28.7061 26.5363 25.265 28.4057 22.3597 29.0274C24.0751 35.0873 30.6695 35.5531 30.6695 35.5531C30.6695 35.5531 34.5939 34.6612 37.5573 28.0811C39.9975 22.6625 39.7848 17.0635 37.3252 14.2142C37.1209 16.9681 35.1126 20.5533 31.717 23.7244Z"/>
  </g>
</svg>
